HIERARCHY
ROOT Pelvis
{
	OFFSET 0.000000 0.000000 0.000000
	CHANNELS 6 Xposition Yposition Zposition Xrotation Yrotation Zrotation
	JOINT LeftUpLeg_virtual
	{
		OFFSET 0.000000 0.000000 0.000000
		CHANNELS 3 Xrotation Yrotation Zrotation
		JOINT LeftUpLeg
		{
			OFFSET 18.735201 -5.666702 -4.541200
			CHANNELS 3 Xrotation Yrotation Zrotation
			JOINT LeftLeg
			{
				OFFSET -0.021200 -31.938179 0.493100
				CHANNELS 3 Xrotation Yrotation Zrotation
				JOINT LeftFoot
				{
					OFFSET 0.021200 -31.938179 -4.336299
					CHANNELS 3 Xrotation Yrotation Zrotation
					JOINT LeftToeBase
					{
						OFFSET 0.943001 -26.722000 15.023500
						CHANNELS 3 Xrotation Yrotation Zrotation
						End Site
						{
							OFFSET 0 0 0
						}
					}
				}
			}
		}
	}
	JOINT RightUpLeg_virtual
	{
		OFFSET 0.000000 0.000000 0.000000
		CHANNELS 3 Xrotation Yrotation Zrotation
		JOINT RightUpLeg
		{
			OFFSET -18.735201 -5.666702 -4.541200
			CHANNELS 3 Xrotation Yrotation Zrotation
			JOINT RightLeg
			{
				OFFSET 0.018946 -31.938133 0.493100
				CHANNELS 3 Xrotation Yrotation Zrotation
				JOINT RightFoot
				{
					OFFSET -0.018946 -31.938126 -4.336299
					CHANNELS 3 Xrotation Yrotation Zrotation
					JOINT RightToeBase
					{
						OFFSET -0.943001 -26.722004 15.023500
						CHANNELS 3 Xrotation Yrotation Zrotation
						End Site
						{
							OFFSET 0 0 0
						}
					}
				}
			}
		}
	}
	JOINT Hips_virtual
	{
		OFFSET 0.000000 0.000000 0.000000
		CHANNELS 3 Xrotation Yrotation Zrotation
		JOINT Hips
		{
			OFFSET -0.000000 -0.000000 -0.000000
			CHANNELS 3 Xrotation Yrotation Zrotation
			JOINT Spine
			{
				OFFSET 0.000000 10.199997 -0.299500
				CHANNELS 3 Xrotation Yrotation Zrotation
				JOINT Spine1
				{
					OFFSET 0.000000 11.900002 -1.516600
					CHANNELS 3 Xrotation Yrotation Zrotation
					JOINT Spine2
					{
						OFFSET 0.000000 13.600006 -2.842500
						CHANNELS 3 Xrotation Yrotation Zrotation
						JOINT Neck_virtual
						{
							OFFSET 0.000000 0.000000 0.000000
							CHANNELS 3 Xrotation Yrotation Zrotation
							JOINT Neck
							{
								OFFSET 0.000000 9.624100 -2.890100
								CHANNELS 3 Xrotation Yrotation Zrotation
								JOINT Head
								{
									OFFSET 0.000000 14.068802 -1.351900
									CHANNELS 3 Xrotation Yrotation Zrotation
									End Site
									{
										OFFSET 0 0 0
									}
								}
							}
						}
						JOINT LeftShoulder_virtual
						{
							OFFSET 0.000000 0.000000 0.000000
							CHANNELS 3 Xrotation Yrotation Zrotation
							JOINT LeftShoulder
							{
								OFFSET 15.263000 10.923401 -0.547700
								CHANNELS 3 Xrotation Yrotation Zrotation
								JOINT LeftArm
								{
									OFFSET 25.438599 -2.830597 -13.032500
									CHANNELS 3 Xrotation Yrotation Zrotation
									JOINT LeftForeArm
									{
										OFFSET 29.960503 0.000000 0.000000
										CHANNELS 3 Xrotation Yrotation Zrotation
										JOINT LeftHand
										{
											OFFSET 27.849251 0.000000 0.000000
											CHANNELS 3 Xrotation Yrotation Zrotation
											End Site
											{
												OFFSET 0 0 0
											}
										}
									}
								}
							}
						}
						JOINT RightShoulder_virtual
						{
							OFFSET 0.000000 0.000000 0.000000
							CHANNELS 3 Xrotation Yrotation Zrotation
							JOINT RightShoulder
							{
								OFFSET -15.263000 10.923401 -0.547700
								CHANNELS 3 Xrotation Yrotation Zrotation
								JOINT RightArm
								{
									OFFSET -25.438599 -2.830597 -13.032500
									CHANNELS 3 Xrotation Yrotation Zrotation
									JOINT RightForeArm
									{
										OFFSET -29.960503 0.000000 0.000000
										CHANNELS 3 Xrotation Yrotation Zrotation
										JOINT RightHand
										{
											OFFSET -27.849251 0.000000 0.000000
											CHANNELS 3 Xrotation Yrotation Zrotation
											End Site
											{
												OFFSET 0 0 0
											}
										}
									}
								}
							}
						}
					}
				}
			}
		}
	}
}
MOTION
Frames: 12
Frame Time: 0.03333333
-1.411407 93.020576 1.697208 0.000000 0.000000 0.000000 9.864371 -5.175260 -7.289545 -27.727853 12.653811 8.166424 30.239447 1.421897 1.901307 -16.305487 0.601464 -1.132237 0.000000 0.000000 0.000000 5.523058 -4.693335 -0.025092 -23.505702 -6.051194 -15.575992 31.959043 -2.495779 0.311272 -16.420668 -6.685276 10.144002 0.000000 0.000000 0.000000 -1.123463 -2.772722 1.073497 -7.713185 -3.102172 4.720607 9.440775 2.261554 -3.712826 4.303780 1.722854 -2.615731 0.000000 0.000000 0.000000 3.687769 1.102344 -2.314344 -0.457601 0.120887 -1.049800 0.000000 0.000000 0.000000 6.555190 1.028653 -2.516784 3.122718 -7.532390 -14.087348 12.202393 -9.156134 -57.706076 7.118870 -36.070099 -4.572877 0.000000 0.000000 0.000000 6.786329 1.850128 -0.527289 3.779706 10.079752 4.890397 16.988876 3.343631 55.112977 8.236268 30.623672 5.618561 0.000000 0.000000 0.000000 
-0.810379 92.695671 2.439018 0.000000 0.000000 0.000000 10.655209 -3.973990 -6.538894 -27.481790 12.911910 9.415038 28.452376 1.763912 2.299586 -17.743049 0.790447 -0.365391 0.000000 0.000000 0.000000 4.776573 -5.712874 0.002754 -24.471613 -6.207937 -15.575770 32.427003 -2.521485 0.811452 -16.045055 -6.947758 10.914332 0.000000 0.000000 0.000000 -3.072487 -2.088395 0.451022 -7.197932 -1.484866 6.931769 9.208698 1.555873 -4.018829 4.355553 1.542838 -2.547276 0.000000 0.000000 0.000000 3.968576 1.064490 -2.786596 -0.368882 0.166354 -1.183072 0.000000 0.000000 0.000000 6.428945 0.811303 -2.519546 3.623949 -8.185096 -14.182928 13.019841 -7.622836 -57.452580 7.985698 -34.454555 -3.698427 0.000000 0.000000 0.000000 6.807965 2.206660 -0.958413 4.262519 10.772335 4.308421 19.059226 4.247968 54.943985 8.511992 32.554177 5.646910 0.000000 0.000000 0.000000 
-1.262485 92.988564 2.658880 0.000000 0.000000 0.000000 11.715465 -2.584420 -6.489744 -26.059613 13.391006 9.502268 27.667457 1.910344 2.559089 -18.241180 0.847521 0.102978 0.000000 0.000000 0.000000 5.126286 -5.513529 -0.239772 -23.883426 -6.146942 -15.808181 32.995531 -2.784358 1.058351 -15.420322 -7.284213 11.120940 0.000000 0.000000 0.000000 -2.014351 -2.023929 1.165964 -9.030903 -2.033712 6.051427 9.801625 1.136073 -4.493959 3.881445 1.410562 -2.468124 0.000000 0.000000 0.000000 4.348350 1.081108 -3.012620 -0.349980 0.115830 -1.348042 0.000000 0.000000 0.000000 6.604290 0.948979 -2.363878 3.458608 -10.231730 -14.548448 11.630720 -6.408633 -58.025572 7.957805 -33.403826 -3.408684 0.000000 0.000000 0.000000 7.272097 2.461399 -1.137856 5.152293 10.480609 4.359221 21.502270 6.722264 55.480609 9.431883 31.534154 5.229720 0.000000 0.000000 0.000000 
-1.209333 93.910042 2.602734 0.000000 0.000000 0.000000 11.121929 -3.029700 -6.570918 -26.533765 13.179742 9.300459 28.532933 1.956968 2.594249 -17.550690 0.854197 0.163593 0.000000 0.000000 0.000000 5.181466 -4.717155 -0.132268 -23.720953 -5.967694 -15.565931 34.974233 -3.106442 1.350934 -13.900390 -7.627759 11.408245 0.000000 0.000000 0.000000 -2.584454 -1.121000 0.750737 -6.813896 -1.591984 5.832292 9.246828 0.736063 -3.746882 4.493955 1.516346 -2.783523 0.000000 0.000000 0.000000 4.037164 1.066917 -2.689804 -0.584805 0.174407 -1.214486 0.000000 0.000000 0.000000 7.674338 0.461445 -2.085250 3.742288 -11.623976 -12.561723 10.501827 -8.191134 -55.382473 7.463159 -35.945141 -2.083761 0.000000 0.000000 0.000000 7.999538 2.562845 -1.300598 5.039904 9.834928 5.109123 24.763056 6.252324 54.884163 11.374129 32.335775 4.283470 0.000000 0.000000 0.000000 
-0.867436 93.715790 1.812771 0.000000 0.000000 0.000000 10.351266 -4.936635 -6.879454 -27.244004 12.697955 8.693355 28.820939 2.501007 2.953619 -17.318274 1.209971 1.036170 0.000000 0.000000 0.000000 5.273580 -3.450808 -0.366053 -23.606790 -5.611216 -15.678769 35.399170 -2.585521 1.870916 -13.675516 -7.351907 12.603872 0.000000 0.000000 0.000000 -0.796938 -0.313158 0.534677 -7.454077 -2.105737 5.286283 10.263306 1.110669 -4.150561 4.374632 1.465217 -2.591941 0.000000 0.000000 0.000000 4.519545 1.014157 -3.046253 -0.629892 0.171138 -1.372873 0.000000 0.000000 0.000000 7.696309 0.225291 -1.949865 3.599907 -11.975348 -12.449382 10.490835 -9.243603 -52.230784 7.926886 -38.410105 -0.426678 0.000000 0.000000 0.000000 7.813320 2.730367 -1.130176 5.082156 10.333532 5.508821 26.319181 6.267721 54.240308 11.919338 34.301565 3.767756 0.000000 0.000000 0.000000 
-0.364097 93.906670 1.342840 0.000000 0.000000 0.000000 9.482337 -4.913499 -6.803849 -28.323637 12.507058 8.875938 29.947122 2.265503 2.899338 -16.307835 0.975940 0.836488 0.000000 0.000000 0.000000 5.028136 -3.862392 -0.459528 -23.971792 -5.638538 -15.806130 36.022541 -2.618753 2.418106 -13.172273 -7.626491 13.484761 0.000000 0.000000 0.000000 -1.902517 -3.613883 1.281248 -3.894489 0.800610 6.557987 9.187778 0.422291 -4.137067 4.884807 1.434813 -2.768921 0.000000 0.000000 0.000000 4.430502 0.782934 -3.198303 -0.384256 -0.065062 -1.497459 0.000000 0.000000 0.000000 7.774605 0.423082 -1.734868 3.995648 -11.767682 -10.958333 8.511502 -9.610610 -51.353713 7.915869 -40.983082 0.479037 0.000000 0.000000 0.000000 8.528797 2.834760 -1.223825 5.450012 10.157140 5.436110 27.186462 9.050474 52.894679 14.062973 34.751975 2.334415 0.000000 0.000000 0.000000 
-1.362600 94.707466 2.314085 0.000000 0.000000 0.000000 10.193005 -5.951826 -6.674966 -27.038617 12.316549 8.630912 30.906616 2.533932 2.895403 -15.488975 1.230834 0.995749 0.000000 0.000000 0.000000 4.091456 -4.462237 -0.469304 -25.405281 -5.587564 -15.887420 36.668632 -2.496212 2.669868 -12.772303 -7.594106 13.964061 0.000000 0.000000 0.000000 -1.911674 -2.259306 1.297196 -8.189831 1.922320 4.882615 9.832015 0.582011 -4.041208 5.716864 0.711653 -2.770533 0.000000 0.000000 0.000000 4.653881 0.550985 -3.212169 -0.536856 -0.213444 -1.590700 0.000000 0.000000 0.000000 8.470464 0.218029 -1.281662 4.555787 -13.474135 -9.274920 9.199941 -11.859678 -47.378997 8.652353 -44.825087 2.433406 0.000000 0.000000 0.000000 8.597407 2.938899 -1.238076 5.224860 9.281447 5.615008 29.658874 9.700248 50.993605 15.308068 35.633821 0.953154 0.000000 0.000000 0.000000 
-0.221227 95.783257 3.040604 0.000000 0.000000 0.000000 9.464653 -5.022076 -6.753458 -28.015817 12.393917 8.757475 30.787993 2.240292 2.440013 -15.820644 1.198324 0.039394 0.000000 0.000000 0.000000 3.322230 -3.372085 -0.690840 -26.383629 -5.124950 -15.964519 38.217210 -1.890023 2.862443 -11.430684 -6.942252 14.709512 0.000000 0.000000 0.000000 -1.689381 -3.252637 1.195681 -9.632369 2.929365 5.435897 11.342047 0.607462 -3.795426 5.858834 0.779296 -3.035487 0.000000 0.000000 0.000000 4.960958 0.621636 -3.323869 -0.473783 -0.298357 -1.498840 0.000000 0.000000 0.000000 9.175624 -0.049578 -1.005407 4.743067 -13.462724 -7.898514 9.293631 -10.379602 -44.703783 9.424844 -47.058159 5.026580 0.000000 0.000000 0.000000 9.662897 3.025672 -1.438278 5.453381 9.061913 6.271341 32.851680 11.422273 46.561782 17.782652 39.598913 -2.207410 0.000000 0.000000 0.000000 
-1.052686 96.072136 3.546362 0.000000 0.000000 0.000000 9.348693 -5.228875 -6.343806 -28.069760 12.174837 9.141731 32.057698 2.132536 2.428547 -14.872037 1.070249 -0.035540 0.000000 0.000000 0.000000 3.645251 -1.688128 -0.688698 -25.812521 -4.747151 -15.767367 41.042163 -1.673448 2.956667 -9.236305 -6.560237 15.079476 0.000000 0.000000 0.000000 -1.057930 -2.197340 1.593733 -11.300287 3.670441 4.852095 11.896691 0.541214 -3.641006 6.312304 0.749933 -2.747649 0.000000 0.000000 0.000000 5.086014 0.740075 -3.401110 -0.496390 -0.297108 -1.609947 0.000000 0.000000 0.000000 9.570306 0.144807 -0.712114 5.193858 -13.681748 -6.644292 7.581887 -11.667791 -40.258125 9.875532 -49.447995 7.299593 0.000000 0.000000 0.000000 10.028334 3.124580 -1.129928 5.697716 9.303716 7.084938 32.584480 12.070819 43.391014 18.486974 40.063909 -4.287362 0.000000 0.000000 0.000000 
-1.461768 96.548187 2.916092 0.000000 0.000000 0.000000 9.263758 -5.990405 -6.428633 -27.775753 11.958674 8.767888 31.828992 1.815129 2.269093 -14.925628 0.846370 -0.464201 0.000000 0.000000 0.000000 3.075329 -1.304405 -1.051639 -26.326942 -4.449493 -15.976205 42.835910 -1.708895 3.043383 -7.678416 -6.492440 15.240415 0.000000 0.000000 0.000000 -0.592899 -1.367558 1.913850 -10.668966 3.817844 5.159626 12.232089 0.562511 -3.172664 6.524066 0.679149 -2.551895 0.000000 0.000000 0.000000 4.943019 0.712703 -3.166699 -0.568823 -0.288726 -1.548106 0.000000 0.000000 0.000000 10.091719 0.032413 -0.502287 5.458093 -13.832678 -6.714371 4.977530 -12.911592 -36.142448 10.298769 -53.232261 9.803132 0.000000 0.000000 0.000000 10.892603 3.239828 -0.995843 6.078644 8.978981 7.212746 32.286861 13.319534 40.542818 20.283029 44.434216 -7.455728 0.000000 0.000000 0.000000 
-1.550047 96.752991 2.337881 0.000000 0.000000 0.000000 8.633579 -5.764123 -6.746038 -28.558411 11.990186 8.514474 32.200882 1.651721 2.089048 -14.697566 0.783380 -0.854365 0.000000 0.000000 0.000000 2.412613 0.172042 -1.287989 -27.076639 -3.853349 -16.029004 45.572928 -1.180072 3.047573 -5.599610 -5.746970 15.685475 0.000000 0.000000 0.000000 -0.627197 -0.119129 1.787905 -10.902932 3.770122 4.905682 13.122728 0.572050 -3.125079 6.922818 0.668732 -2.403246 0.000000 0.000000 0.000000 5.172122 0.726395 -3.170425 -0.539839 -0.195903 -1.539661 0.000000 0.000000 0.000000 10.805656 -0.015459 -0.310127 5.642153 -13.756021 -6.257285 3.483744 -15.341047 -32.304452 12.593741 -56.850123 13.548351 0.000000 0.000000 0.000000 11.381232 3.310750 -0.816001 6.219079 8.923291 8.516033 32.939902 13.492376 36.281685 21.515869 47.071027 -10.673145 0.000000 0.000000 0.000000 
-1.882985 97.667450 2.872559 0.000000 0.000000 0.000000 9.073706 -6.784891 -6.613932 -28.070382 11.819836 8.539848 33.968054 1.334604 2.215412 -13.401153 0.344499 -0.844196 0.000000 0.000000 0.000000 1.573580 3.116054 -1.244909 -28.073725 -2.901439 -15.692247 47.619478 -0.423951 3.330365 -4.160103 -4.978317 16.762193 0.000000 0.000000 0.000000 -0.675918 -0.361031 1.773883 -11.129229 5.028901 3.909126 13.960268 0.741470 -2.662376 7.366959 0.640702 -2.231530 0.000000 0.000000 0.000000 5.385265 0.836448 -2.949481 -0.576096 -0.131278 -1.449885 0.000000 0.000000 0.000000 11.512996 0.164692 -0.148762 5.687377 -13.585200 -6.327635 4.037278 -16.825097 -28.100203 14.363942 -58.992071 16.801034 0.000000 0.000000 0.000000 12.202381 3.449891 -0.578941 6.187470 9.035704 9.329638 32.289774 14.340626 32.356396 23.161948 49.998709 -14.170687 0.000000 0.000000 0.000000 
